<svg preserveAspectRatio="none" width="100%" height="100%" overflow="visible" style="display: block;" viewBox="0 0 77.2881 36.6102" fill="none" xmlns="http://www.w3.org/2000/svg">
<g id="Logo Mark 2" clip-path="url(#clip0_239_1553)">
<path id="Vector" d="M48.5588 20.1266C48.4354 20.1892 48.3052 20.2519 48.1835 20.3145C45.0231 21.8764 42.2513 23.2655 36.6944 23.4204L26.3328 0H16.1474L0 36.5986H10.5328L15.0873 25.2576C18.1686 27.4572 22.7214 29.5696 29.2643 30.4346L31.73 36.6003H42.5245L39.8794 30.6224C43.5467 30.2254 46.2692 29.3438 48.5588 28.3306V36.6102H58.9006V24.119C61.8914 23.5027 65.7892 23.2852 71.5568 23.8438V16.3929C66.1924 15.9184 62.1597 16.0915 58.9006 16.6021V8.0144H77.2321V0.0148311H48.5588V20.1266ZM17.9447 18.1428L21.1528 10.1515L26.0068 22.29C21.966 21.1943 19.4525 19.5219 17.9447 18.1428Z" fill="var(--fill-0, white)"/>
</g>
<defs>
<clipPath id="clip0_239_1553">
<rect width="77.2881" height="36.6102" fill="white"/>
</clipPath>
</defs>
</svg>
