<svg preserveAspectRatio="none" width="100%" height="100%" overflow="visible" style="display: block;" viewBox="0 0 33.8602 28.9988" fill="none" xmlns="http://www.w3.org/2000/svg">
<g id="Group 2147226212">
<path id="Vector 6932" d="M3.43536 7.93359C4.17069 9.6408 5.30988 11.2524 6.96661 12.1045C9.36096 13.3358 12.5852 12.8781 16.7567 9.43848C16.5219 10.3506 16.346 11.3257 16.2742 12.3057C16.1551 13.9339 16.3186 15.6133 17.0027 17.0371C17.696 18.4796 18.9105 19.6295 20.8152 20.1875C22.1069 20.5659 23.701 20.6671 25.6492 20.4258C23.5784 21.7627 21.0296 23.717 19.1395 26.0137C18.8788 26.3304 18.3244 26.3295 18.0574 25.999C15.6662 23.0393 10.2999 18.5641 1.78107 16.6719C1.46251 16.6011 1.27854 16.2699 1.37872 15.9727C1.90869 14.4016 2.53409 12.3275 2.98712 10.3223C3.17006 9.51249 3.32473 8.70184 3.43536 7.93359Z" stroke="var(--stroke-0, #007AFE)"/>
<path id="Vector 6933" d="M0.516417 19.3872C1.34079 16.9261 18.2655 26.9445 15.3014 28.4201C13.6565 29.2389 1.33758 23.4908 0.516417 19.3872Z" stroke="var(--stroke-0, #007AFE)"/>
<path id="Vector 6934" d="M0.516417 2.14234C0.516417 0.828467 1.61131 0.5 2.15875 0.5C3.80109 0.5 3.80109 2.14234 3.80109 2.9635C3.80109 3.62044 2.7062 3.78467 2.15875 3.78467C1.61131 3.78467 0.516417 3.4562 0.516417 2.14234Z" stroke="var(--stroke-0, #007AFE)"/>
<path id="Vector 6934_2" d="M20.2217 2.96484C21.5356 2.96484 21.8641 4.05973 21.8641 4.60718C21.8641 6.24951 20.2217 6.24951 19.4006 6.24951C18.7436 6.24951 18.5794 5.15462 18.5794 4.60718C18.5794 4.05973 18.9079 2.96484 20.2217 2.96484Z" stroke="var(--stroke-0, #007AFE)"/>
<path id="Vector 6934_3" d="M33.3602 19.3889C33.3602 20.7028 32.2653 21.0312 31.7178 21.0312C30.0755 21.0312 30.0755 19.3889 30.0755 18.5677C30.0755 17.9108 31.1704 17.7466 31.7178 17.7466C32.2653 17.7466 33.3602 18.075 33.3602 19.3889Z" stroke="var(--stroke-0, #007AFE)"/>
</g>
</svg>
