<svg preserveAspectRatio="none" width="100%" height="100%" overflow="visible" style="display: block;" viewBox="0 0 189.712 148.012" fill="none" xmlns="http://www.w3.org/2000/svg">
<path id="Vector 6931" d="M116.814 85.7019L117.073 84.736L116.814 85.7019ZM177.923 0.134142C177.445 -0.142001 176.833 0.0218744 176.557 0.500167L172.057 8.2944C171.781 8.77269 171.945 9.38428 172.423 9.66042C172.901 9.93656 173.513 9.77269 173.789 9.2944L177.789 2.36619L184.717 6.36619C185.196 6.64233 185.807 6.47846 186.083 6.00017C186.359 5.52187 186.196 4.91028 185.717 4.63414L177.923 0.134142ZM0.923077 131.5L1.84615 131.885C2.20971 131.012 2.65474 130.196 3.17528 129.432L2.34892 128.869L1.52256 128.305C0.926604 129.18 0.416435 130.116 0 131.116L0.923077 131.5ZM6.56363 124.654L7.14129 125.47C8.61391 124.428 10.3111 123.542 12.1999 122.803L11.8357 121.872L11.4715 120.94C9.45787 121.728 7.61229 122.687 5.98598 123.838L6.56363 124.654ZM17.5639 120.176L17.7755 121.154C19.621 120.754 21.5704 120.454 23.6 120.247L23.4985 119.253L23.397 118.258C21.3031 118.471 19.2794 118.782 17.3523 119.199L17.5639 120.176ZM29.46 118.904L29.4787 119.904C31.4163 119.867 33.3975 119.9 35.4043 119.997L35.4522 118.998L35.5001 117.999C33.4525 117.901 31.4268 117.867 29.4413 117.904L29.46 118.904ZM41.4263 119.457L41.322 120.452C43.2838 120.658 45.2518 120.916 47.2099 121.222L47.3643 120.234L47.5187 119.246C45.5286 118.935 43.5271 118.672 41.5305 118.463L41.4263 119.457ZM53.2573 121.301L53.0556 122.281C55.0184 122.685 56.9532 123.133 58.8424 123.618L59.0912 122.65L59.3401 121.681C57.4194 121.188 55.4532 120.733 53.459 120.322L53.2573 121.301ZM64.8616 124.291L64.5624 125.245C66.5073 125.855 68.3747 126.502 70.1422 127.178L70.4994 126.244L70.8567 125.31C69.0482 124.619 67.1419 123.958 65.1608 123.337L64.8616 124.291ZM76.0291 128.609L75.5959 129.511C77.5262 130.438 79.2463 131.394 80.7144 132.361L81.2642 131.526L81.8141 130.69C80.256 129.665 78.4548 128.666 76.4623 127.708L76.0291 128.609ZM85.7551 135.403L84.9705 136.023C86.3176 137.728 86.5422 139.177 85.8703 140.467L86.7572 140.929L87.6441 141.391C88.8116 139.149 88.1696 136.846 86.5398 134.783L85.7551 135.403ZM82.2101 144.705L81.77 143.808C80.9884 144.191 80.0957 144.566 79.0846 144.929L79.4231 145.87L79.7616 146.811C80.8306 146.427 81.7925 146.024 82.6502 145.603L82.2101 144.705ZM79.4231 145.87L79.0846 144.929C78.0493 145.302 77.0881 145.593 76.1981 145.811L76.4355 146.782L76.6729 147.754C77.6403 147.517 78.6692 147.204 79.7616 146.811L79.4231 145.87ZM70.2649 147.044L70.5167 146.076C68.6937 145.602 67.5862 144.422 67.0471 142.597L66.0881 142.88L65.129 143.163C65.8439 145.584 67.4364 147.341 70.0132 148.012L70.2649 147.044ZM65.8944 136.736L66.8839 136.88C67.1437 135.095 67.6348 133.121 68.3359 131.012L67.3869 130.697L66.438 130.381C65.7089 132.575 65.1852 134.665 64.9048 136.592L65.8944 136.736ZM69.6676 124.932L70.5783 125.345C71.3899 123.556 72.313 121.721 73.3339 119.869L72.4581 119.387L71.5824 118.904C70.5383 120.798 69.5915 122.679 68.7569 124.519L69.6676 124.932ZM75.6443 114.043L76.486 114.583C77.5796 112.878 78.7432 111.182 79.9657 109.516L79.1594 108.924L78.3531 108.332C77.1059 110.032 75.9187 111.763 74.8026 113.503L75.6443 114.043ZM82.993 104.032L83.7597 104.674C85.0844 103.092 86.4559 101.562 87.8629 100.105L87.1434 99.4104L86.424 98.7158C84.9824 100.209 83.5795 101.774 82.2263 103.39L82.993 104.032ZM91.6383 95.116L92.2972 95.8683C93.8698 94.4907 95.4679 93.2231 97.0776 92.0901L96.502 91.2723L95.9264 90.4546C94.2527 91.6327 92.5992 92.945 90.9794 94.3638L91.6383 95.116ZM101.816 88.0537L102.266 88.9465C104.148 87.9969 106.017 87.269 107.854 86.7958L107.605 85.8274L107.355 84.859C105.358 85.3736 103.354 86.1575 101.365 87.1609L101.816 88.0537ZM113.753 85.1979L113.686 86.1957C114.659 86.2608 115.616 86.4162 116.555 86.6678L116.814 85.7019L117.073 84.736C116.003 84.4495 114.917 84.2737 113.82 84.2002L113.753 85.1979ZM116.814 85.7019L116.555 86.6678C117.551 86.9346 118.537 87.198 119.514 87.4575L119.771 86.491L120.028 85.5245C119.052 85.2654 118.067 85.0024 117.073 84.736L116.814 85.7019ZM125.635 88.0286L125.385 88.9968C127.391 89.5145 129.354 90.0114 131.273 90.4839L131.512 89.5129L131.751 88.5419C129.84 88.0715 127.885 87.5765 125.885 87.0603L125.635 88.0286ZM137.404 90.914L137.182 91.8889C139.213 92.3527 141.191 92.7818 143.114 93.1711L143.312 92.191L143.511 91.2109C141.607 90.8253 139.645 90.3998 137.627 89.939L137.404 90.914ZM149.29 93.2964L149.127 94.2831C151.222 94.6292 153.244 94.9147 155.189 95.1313L155.3 94.1374L155.411 93.1435C153.505 92.9315 151.519 92.6512 149.453 92.3098L149.29 93.2964ZM161.329 94.5843L161.297 95.5838C163.47 95.6524 165.532 95.6051 167.478 95.4253L167.386 94.4295L167.294 93.4337C165.443 93.6047 163.465 93.6513 161.361 93.5848L161.329 94.5843ZM173.34 93.3278L173.625 94.2864C175.731 93.6608 177.653 92.7972 179.379 91.6612L178.829 90.8258L178.28 89.9905C176.737 91.0061 174.997 91.7925 173.056 92.3693L173.34 93.3278ZM183.23 86.6995L184.027 87.3037C185.238 85.7073 186.253 83.8654 187.075 81.7639L186.144 81.3996L185.213 81.0354C184.45 82.9849 183.521 84.6615 182.434 86.0953L183.23 86.6995ZM187.779 75.6049L188.76 75.7941C189.125 73.9031 189.385 71.8603 189.541 69.6583L188.543 69.5876L187.546 69.5169C187.395 71.6504 187.144 73.6131 186.797 75.4157L187.779 75.6049ZM188.712 63.5566L189.712 63.5466C189.693 61.613 189.61 59.577 189.465 57.4348L188.467 57.5026L187.469 57.5704C187.613 59.6783 187.693 61.6755 187.712 63.5666L188.712 63.5566ZM187.92 51.4672L188.914 51.3565C188.698 49.4202 188.439 47.4078 188.135 45.3171L187.145 45.4608L186.156 45.6045C186.456 47.6751 186.713 49.6654 186.926 51.5779L187.92 51.4672ZM186.193 39.4764L187.178 39.3067C186.845 37.3682 186.477 35.369 186.077 33.3077L185.095 33.4985L184.113 33.6893C184.512 35.7376 184.876 37.7227 185.207 39.6461L186.193 39.4764ZM183.873 27.5078L184.851 27.2995C184.445 25.3898 184.012 23.4311 183.553 21.4225L182.579 21.6451L181.604 21.8677C182.06 23.8674 182.491 25.8164 182.895 27.716L183.873 27.5078ZM181.195 15.7605L182.167 15.5256C181.698 13.5857 181.207 11.6025 180.693 9.57509L179.724 9.82062L178.755 10.0662C179.266 12.0868 179.756 14.0629 180.223 15.9954L181.195 15.7605ZM178.22 3.99983L179.187 3.74523C178.926 2.75387 178.66 1.75261 178.389 0.741348L177.423 1.00017L176.457 1.25899C176.727 2.2675 176.993 3.26595 177.253 4.25443L178.22 3.99983Z" fill="var(--stroke-0, #007AFE)"/>
</svg>
