<svg preserveAspectRatio="none" width="100%" height="100%" overflow="visible" style="display: block;" viewBox="0 0 154.523 146.87" fill="none" xmlns="http://www.w3.org/2000/svg">
<path id="Vector 6931" d="M81.625 85.7019L81.8838 84.736L81.625 85.7019ZM142.734 0.134142C142.256 -0.142001 141.644 0.0218744 141.368 0.500167L136.868 8.2944C136.592 8.77269 136.756 9.38428 137.234 9.66042C137.713 9.93656 138.324 9.77269 138.6 9.2944L142.6 2.36619L149.529 6.36619C150.007 6.64233 150.618 6.47846 150.895 6.00017C151.171 5.52187 151.007 4.91028 150.529 4.63414L142.734 0.134142ZM0.234358 85.7019L0.468715 86.674C1.41068 86.447 2.34584 86.2715 3.2736 86.1451L3.13855 85.1543L3.00351 84.1634C2.00859 84.299 1.00714 84.4869 0 84.7297L0.234358 85.7019ZM9.0172 84.9687L8.9447 85.9661C10.8456 86.1043 12.7126 86.4387 14.5396 86.9466L14.8074 85.9832L15.0753 85.0197C13.1273 84.4782 11.1296 84.1196 9.08971 83.9713L9.0172 84.9687ZM20.3148 88.0608L19.8838 88.9631C21.59 89.7781 23.2518 90.7379 24.8627 91.8212L25.4208 90.9914L25.9788 90.1615C24.2936 89.0283 22.5471 88.0188 20.7458 87.1584L20.3148 88.0608ZM30.0909 94.577L29.4361 95.3328C30.8823 96.5858 32.2738 97.932 33.6048 99.3511L34.3342 98.667L35.0636 97.983C33.6887 96.517 32.2476 95.1225 30.7458 93.8212L30.0909 94.577ZM38.1622 103.146L37.3738 103.761C38.5692 105.293 39.6981 106.876 40.7546 108.489L41.5912 107.941L42.4277 107.393C41.3421 105.735 40.1811 104.108 38.9505 102.531L38.1622 103.146ZM44.6195 112.996L43.7419 113.475C44.6884 115.208 45.5483 116.951 46.3154 118.68L47.2295 118.274L48.1436 117.869C47.3539 116.089 46.4696 114.297 45.4972 112.516L44.6195 112.996ZM49.3766 123.769L48.429 124.088C49.0764 126.01 49.5912 127.878 49.9652 129.655L50.9438 129.449L51.9224 129.243C51.5306 127.381 50.9941 125.438 50.3243 123.45L49.3766 123.769ZM51.6819 135.276L50.6823 135.305C50.7438 137.449 50.5077 139.293 49.9855 140.765L50.9281 141.1L51.8706 141.434C52.4995 139.66 52.7476 137.554 52.6815 135.247L51.6819 135.276ZM47.1385 145.351L46.7649 144.424C46.0567 144.709 45.2196 144.87 44.2344 144.87V145.87V146.87C45.4394 146.87 46.5349 146.672 47.5122 146.279L47.1385 145.351ZM44.2344 145.87V144.87C43.1683 144.87 42.2799 144.685 41.5422 144.361L41.1399 145.276L40.7376 146.192C41.7658 146.644 42.9347 146.87 44.2344 146.87V145.87ZM37.3843 140.502L38.3471 140.232C37.8937 138.615 37.7517 136.614 37.9196 134.312L36.9222 134.239L35.9249 134.167C35.7463 136.616 35.8863 138.864 36.4214 140.772L37.3843 140.502ZM37.9467 128.007L38.9185 128.243C39.3811 126.338 39.9874 124.346 40.7245 122.307L39.7841 121.967L38.8437 121.627C38.0846 123.727 37.4564 125.788 36.9749 127.771L37.9467 128.007ZM42.1897 116.138L43.0971 116.559C43.9554 114.706 44.9055 112.849 45.9374 111.016L45.0661 110.525L44.1948 110.035C43.137 111.913 42.1628 113.817 41.2823 115.718L42.1897 116.138ZM48.3778 105.154L49.2072 105.712C50.3732 103.981 51.6081 102.302 52.9018 100.704L52.1244 100.075L51.3471 99.4457C50.0145 101.092 48.7451 102.818 47.5483 104.595L48.3778 105.154ZM56.3339 95.3757L57.0419 96.082C58.5356 94.5846 60.0819 93.2115 61.6686 91.9937L61.0597 91.2004L60.4509 90.4071C58.7867 91.6843 57.1746 93.117 55.6259 94.6695L56.3339 95.3757ZM66.3657 87.7991L66.8237 88.6881C68.6866 87.7283 70.5783 87.0089 72.4828 86.5686L72.2575 85.5943L72.0323 84.62C69.9455 85.1025 67.898 85.8847 65.9076 86.9102L66.3657 87.7991ZM78.5194 85.1446L78.4269 86.1403C79.4047 86.2312 80.3849 86.4049 81.3662 86.6678L81.625 85.7019L81.8838 84.736C80.7931 84.4437 79.7015 84.2501 78.6119 84.1489L78.5194 85.1446ZM81.625 85.7019L81.3662 86.6678C82.3619 86.9346 83.3483 87.198 84.3255 87.4575L84.5822 86.491L84.8389 85.5245C83.8634 85.2654 82.8783 85.0024 81.8838 84.736L81.625 85.7019ZM90.4466 88.0286L90.1967 88.9968C92.2023 89.5145 94.1651 90.0114 96.0844 90.4839L96.3234 89.5129L96.5624 88.5419C94.6518 88.0715 92.6963 87.5765 90.6966 87.0603L90.4466 88.0286ZM102.216 90.914L101.993 91.8889C104.025 92.3527 106.002 92.7818 107.925 93.1711L108.124 92.191L108.322 91.2109C106.418 90.8253 104.456 90.3998 102.438 89.939L102.216 90.914ZM114.101 93.2964L113.938 94.2831C116.033 94.6292 118.055 94.9147 120.001 95.1313L120.111 94.1374L120.222 93.1435C118.316 92.9315 116.33 92.6512 114.264 92.3098L114.101 93.2964ZM126.14 94.5843L126.109 95.5838C128.281 95.6524 130.343 95.6051 132.29 95.4253L132.198 94.4295L132.106 93.4337C130.255 93.6047 128.276 93.6513 126.172 93.5848L126.14 94.5843ZM138.152 93.3278L138.437 94.2864C140.542 93.6608 142.464 92.7972 144.19 91.6612L143.641 90.8258L143.091 89.9905C141.548 91.0061 139.808 91.7925 137.867 92.3693L138.152 93.3278ZM148.042 86.6995L148.839 87.3037C150.049 85.7073 151.065 83.8654 151.887 81.7639L150.955 81.3996L150.024 81.0354C149.261 82.9849 148.332 84.6615 147.245 86.0953L148.042 86.6995ZM152.59 75.6049L153.572 75.7941C153.936 73.9031 154.196 71.8603 154.352 69.6583L153.355 69.5876L152.357 69.5169C152.206 71.6504 151.955 73.6131 151.608 75.4157L152.59 75.6049ZM153.523 63.5566L154.523 63.5466C154.504 61.613 154.422 59.577 154.276 57.4348L153.278 57.5026L152.281 57.5704C152.424 59.6783 152.505 61.6755 152.523 63.5666L153.523 63.5566ZM152.731 51.4672L153.725 51.3565C153.509 49.4202 153.25 47.4078 152.946 45.3171L151.957 45.4608L150.967 45.6045C151.268 47.6751 151.524 49.6654 151.737 51.5779L152.731 51.4672ZM151.004 39.4764L151.99 39.3067C151.656 37.3682 151.289 35.369 150.888 33.3077L149.906 33.4985L148.925 33.6893C149.323 35.7376 149.687 37.7227 150.019 39.6461L151.004 39.4764ZM148.685 27.5078L149.663 27.2995C149.256 25.3898 148.823 23.4311 148.365 21.4225L147.39 21.6451L146.415 21.8677C146.872 23.8674 147.302 25.8164 147.707 27.716L148.685 27.5078ZM146.006 15.7605L146.978 15.5256C146.509 13.5857 146.018 11.6025 145.505 9.57509L144.535 9.82062L143.566 10.0662C144.078 12.0868 144.567 14.0629 145.034 15.9954L146.006 15.7605ZM143.031 3.99983L143.998 3.74523C143.737 2.75387 143.471 1.75261 143.2 0.741348L142.234 1.00017L141.268 1.25899C141.539 2.2675 141.804 3.26595 142.064 4.25443L143.031 3.99983Z" fill="var(--stroke-0, #007AFE)"/>
</svg>
