<svg preserveAspectRatio="none" width="100%" height="100%" overflow="visible" style="display: block;" viewBox="0 0 143.345 98.3042" fill="none" xmlns="http://www.w3.org/2000/svg">
<path id="Vector 6931" d="M76.7344 94.8316L76.7344 95.8316L76.7344 94.8316ZM45.344 9.37598C45.0926 9.8677 45.2873 10.4702 45.7791 10.7216L53.7922 14.8192C54.2839 15.0707 54.8863 14.8759 55.1378 14.3842C55.3892 13.8924 55.1945 13.29 54.7027 13.0385L47.58 9.39621L51.2223 2.27346C51.4738 1.78174 51.279 1.17928 50.7873 0.927829C50.2955 0.67638 49.6931 0.87116 49.4416 1.36288L45.344 9.37598ZM0.234358 97.332L0.468715 98.3042C1.40563 98.0783 2.36431 97.8483 3.34282 97.6142L3.11016 96.6417L2.8775 95.6691C1.89816 95.9034 0.938308 96.1337 0 96.3599L0.234358 97.332ZM8.8919 95.2636L9.12338 96.2364C11.0055 95.7886 12.9395 95.3284 14.9132 94.8566L14.6808 93.884L14.4483 92.9114C12.4757 93.3829 10.5426 93.8429 8.66042 94.2907L8.8919 95.2636ZM20.4662 92.4938L20.7013 93.4658C22.6055 93.0052 24.5348 92.5351 26.4797 92.0561L26.2406 91.0851L26.0015 90.1142C24.0597 90.5924 22.1331 91.0618 20.2311 91.5218L20.4662 92.4938ZM32.0142 89.6468L32.2588 90.6164C34.1786 90.1322 36.1046 89.6399 38.0279 89.1402L37.7764 88.1723L37.5249 87.2045C35.6068 87.7029 33.6854 88.1939 31.7697 88.6771L32.0142 89.6468ZM43.5275 86.6518L43.7875 87.6174C45.7166 87.0979 47.634 86.5713 49.5308 86.0381L49.2602 85.0754L48.9896 84.1128C47.1005 84.6438 45.1902 85.1684 43.2675 85.6862L43.5275 86.6518ZM54.9749 83.4284L55.2587 84.3873C57.1987 83.8131 59.106 83.2323 60.9697 82.6454L60.6693 81.6916L60.3689 80.7377C58.5174 81.3208 56.6213 81.8983 54.6912 82.4695L54.9749 83.4284ZM66.3075 79.849L66.6293 80.7958C68.5834 80.1316 70.4714 79.4603 72.2785 78.7829L71.9275 77.8465L71.5765 76.9101C69.7912 77.5794 67.9229 78.2437 65.9856 78.9023L66.3075 79.849ZM77.4474 75.6447L77.8401 76.5644C79.8035 75.726 81.6283 74.878 83.2869 74.0218L82.8282 73.1332L82.3695 72.2447C80.7626 73.0742 78.9831 73.9016 77.0547 74.725L77.4474 75.6447ZM87.9406 70.0715L88.5239 70.8838C90.5271 69.4452 92.0766 67.9297 92.9371 66.3253L92.0558 65.8526L91.1745 65.38C90.522 66.5967 89.2523 67.8984 87.3573 69.2593L87.9406 70.0715ZM91.4507 60.3635L92.2295 59.7362C91.6135 58.9715 90.808 58.2347 89.8199 57.521L89.2344 58.3316L88.6488 59.1423C89.5302 59.7789 90.1937 60.3972 90.672 60.9909L91.4507 60.3635ZM89.2344 58.3316L89.8199 57.521C88.9716 56.9083 88.1099 56.4025 87.2388 55.9984L86.818 56.9056L86.3972 57.8127C87.1466 58.1603 87.8985 58.6003 88.6488 59.1423L89.2344 58.3316ZM81.4066 55.7557L81.3833 54.756C79.3869 54.8024 77.4388 55.304 75.5924 56.1469L76.0077 57.0566L76.423 57.9663C78.059 57.2195 79.7413 56.7947 81.4298 56.7555L81.4066 55.7557ZM71.3411 60.0967L70.69 59.3377C69.2556 60.5683 67.9235 61.9946 66.7241 63.5516L67.5163 64.1619L68.3085 64.7722C69.4325 63.313 70.6717 61.9886 71.9923 60.8556L71.3411 60.0967ZM64.5136 68.8718L63.6269 68.4094C62.7299 70.1294 61.9842 71.9243 61.4213 73.737L62.3763 74.0335L63.3313 74.3301C63.8572 72.6367 64.5562 70.9526 65.4002 69.3342L64.5136 68.8718ZM61.2879 79.5011L60.2912 79.4199C60.1262 81.4449 60.2368 83.4329 60.6821 85.2929L61.6547 85.0601L62.6272 84.8273C62.239 83.2057 62.1337 81.4335 62.2846 79.5824L61.2879 79.5011ZM64.081 90.0405L63.3111 90.6787C64.5309 92.1503 66.1256 93.3654 68.1206 94.2444L68.5238 93.3293L68.927 92.4142C67.202 91.6542 65.8629 90.6233 64.8509 89.4024L64.081 90.0405ZM73.9405 94.6918L73.8363 95.6864C74.7526 95.7824 75.7182 95.8317 76.7344 95.8316L76.7344 94.8316L76.7344 93.8316C75.7827 93.8317 74.8869 93.7855 74.0447 93.6972L73.9405 94.6918ZM76.7344 94.8316L76.7344 95.8316C77.7573 95.8316 78.7709 95.8122 79.7751 95.7739L79.7369 94.7746L79.6988 93.7753C78.7202 93.8127 77.732 93.8316 76.7344 93.8316L76.7344 94.8316ZM85.6247 94.3217L85.7404 95.315C87.754 95.0804 89.7246 94.7684 91.6505 94.384L91.4547 93.4033L91.259 92.4227C89.3862 92.7965 87.4691 93.1001 85.509 93.3284L85.6247 94.3217ZM97.2248 91.9972L97.5025 92.9578C99.4565 92.3929 101.358 91.7514 103.204 91.0395L102.844 90.1064L102.484 89.1734C100.692 89.8646 98.8454 90.4876 96.947 91.0365L97.2248 91.9972ZM108.272 87.7341L108.713 88.6318C110.534 87.7379 112.292 86.7731 113.986 85.7446L113.466 84.8899L112.947 84.0352C111.305 85.0329 109.599 85.969 107.832 86.8364L108.272 87.7341ZM118.383 81.5898L118.978 82.394C120.608 81.1889 122.164 79.9219 123.644 78.6014L122.979 77.8551L122.313 77.1089C120.878 78.3889 119.369 79.6172 117.789 80.7857L118.383 81.5898ZM127.21 73.7113L127.942 74.3922C129.324 72.9062 130.619 71.3707 131.826 69.7948L131.032 69.1868L130.238 68.5788C129.07 70.104 127.816 71.5909 126.477 73.0304L127.21 73.7113ZM134.399 64.3134L135.249 64.8402C136.32 63.1117 137.291 61.3489 138.158 59.5627L137.258 59.1262L136.359 58.6896C135.522 60.4131 134.585 62.1156 133.549 63.7865L134.399 64.3134ZM139.551 53.666L140.493 54.0016C141.178 52.0797 141.743 50.1434 142.185 48.2053L141.21 47.9831L140.235 47.7609C139.811 49.62 139.268 51.4806 138.609 53.3304L139.551 53.666ZM142.155 42.1424L143.15 42.2368C143.343 40.2018 143.394 38.1787 143.297 36.1825L142.298 36.2311L141.299 36.2797C141.392 38.1768 141.344 40.1042 141.159 42.0479L142.155 42.1424ZM141.549 30.3544L142.528 30.1484C142.108 28.1538 141.523 26.2051 140.769 24.3196L139.841 24.691L138.912 25.0624C139.622 26.8372 140.173 28.675 140.57 30.5604L141.549 30.3544ZM137.158 19.4234L138.004 18.8901C136.934 17.1932 135.699 15.5746 134.294 14.0499L133.559 14.7274L132.823 15.4049C134.145 16.8403 135.307 18.3623 136.312 19.9567L137.158 19.4234ZM129.179 10.7343L129.788 9.94113C128.228 8.74315 126.528 7.63463 124.687 6.62627L124.207 7.50333L123.726 8.3804C125.48 9.34112 127.094 10.394 128.57 11.5275L129.179 10.7343ZM118.833 5.01898L119.194 4.08613C117.391 3.39 115.484 2.77458 113.469 2.24633L113.216 3.21362L112.962 4.18091C114.907 4.69107 116.743 5.28383 118.473 5.95183L118.833 5.01898ZM107.456 1.99823L107.617 1.01134C105.72 0.701106 103.743 0.459315 101.685 0.290055L101.603 1.28669L101.521 2.28332C103.528 2.44841 105.452 2.68389 107.294 2.98512L107.456 1.99823ZM95.6689 1.00852L95.6824 0.0086118C93.7353 -0.0175136 91.7245 0.0155962 89.649 0.110773L89.6949 1.10972L89.7407 2.10867C91.7783 2.01523 93.7496 1.98286 95.6555 2.00843L95.6689 1.00852ZM83.8723 1.52669L83.7764 0.531295C81.8385 0.717938 79.8495 0.955011 77.8087 1.24449L77.9491 2.23458L78.0896 3.22467C80.1018 2.93924 82.0611 2.70575 83.9682 2.52208L83.8723 1.52669ZM72.1259 3.17961L71.9468 2.19578C70.0449 2.542 68.1016 2.93116 66.1164 3.36466L66.3298 4.34164L66.5431 5.31862C68.5063 4.88993 70.4267 4.50536 72.305 4.16344L72.1259 3.17961ZM60.542 5.70297L60.298 4.73319C58.4261 5.20412 56.5194 5.71259 54.5775 6.25962L54.8487 7.22216L55.1198 8.18469C57.0441 7.6426 58.9327 7.13899 60.786 6.67275L60.542 5.70297ZM49.1555 8.90659L48.8597 7.95135C47.8903 8.25157 46.9127 8.561 45.9267 8.87976L46.2344 9.83126L46.542 10.7828C47.5202 10.4665 48.49 10.1596 49.4514 9.86183L49.1555 8.90659Z" fill="var(--stroke-0, #007AFE)"/>
</svg>
