<svg preserveAspectRatio="none" width="100%" height="100%" overflow="visible" style="display: block;" viewBox="0 0 2012.11 837.488" fill="none" xmlns="http://www.w3.org/2000/svg">
<g id="vector" opacity="0.32">
<path id="Vector 9" opacity="0.6" d="M0.0526622 0.723256C-0.0705734 0.476125 0.0298535 0.175893 0.276972 0.0526631C0.524091 -0.0705668 0.824322 0.029836 0.947558 0.276967L0.50011 0.500112L0.0526622 0.723256ZM718.201 614.691L718.059 615.17L718.201 614.691ZM0.50011 0.500112C0.947558 0.276967 0.948378 0.278615 0.950094 0.282033C0.95186 0.285573 0.954472 0.290822 0.958006 0.297902C0.965074 0.312002 0.975727 0.333242 0.989965 0.361623C1.01844 0.418325 1.06126 0.503408 1.11843 0.616506C1.23277 0.842641 1.4045 1.18071 1.63368 1.62774C2.09204 2.52172 2.78019 3.85137 3.6985 5.59221C5.53514 9.0739 8.29248 14.2006 11.9737 20.777C19.336 33.9301 30.3937 52.8824 45.1718 76.0735C74.7283 122.456 119.165 185.792 178.684 253.599C297.726 389.215 477.075 542.691 718.343 614.212L718.201 614.691L718.059 615.17C476.548 543.578 297.047 389.959 177.933 254.258C118.374 186.406 73.9067 123.028 44.3285 76.611C29.5392 53.4023 18.4718 34.4336 11.1011 21.2655C7.41565 14.6814 4.65436 9.54748 2.81402 6.05877C1.89385 4.31438 1.20392 2.98131 0.743824 2.08397C0.513777 1.63524 0.34119 1.29552 0.226013 1.06768C0.168424 0.953786 0.125188 0.86791 0.0962985 0.810354C0.0818536 0.781606 0.0709954 0.759939 0.0637229 0.745351C0.0600868 0.738088 0.0573214 0.732595 0.0555035 0.728933C0.0536347 0.72521 0.0526622 0.723256 0.50011 0.500112ZM718.201 614.691L718.343 614.212C959.638 685.74 1203.16 676.402 1423.39 657.368C1533.49 647.852 1637.8 635.909 1733.05 630.447C1828.3 624.985 1914.57 625.999 1988.61 642.413L1988.5 642.901L1988.39 643.389C1914.49 627.006 1828.34 625.985 1733.11 631.445C1637.87 636.906 1533.62 648.844 1423.48 658.364C1203.22 677.401 959.544 686.755 718.059 615.17L718.201 614.691Z" fill="url(#paint0_linear_239_1411)"/>
<path id="Vector 10" opacity="0.21" d="M0.00515464 30.571C-0.0339728 30.2976 0.155907 30.0443 0.429263 30.0052C0.70262 29.9661 0.955938 30.1559 0.995065 30.4293L0.50011 30.5001L0.00515464 30.571ZM0.50011 30.5001C0.995065 30.4293 0.995308 30.431 0.995831 30.4346C0.996379 30.4384 0.997184 30.444 0.998285 30.4515C1.00049 30.4667 1.00383 30.4896 1.00832 30.5201C1.01732 30.5812 1.03096 30.6729 1.04942 30.7947C1.08634 31.0384 1.14257 31.4025 1.21958 31.8831C1.37361 32.8443 1.61078 34.2714 1.94301 36.1323C2.60747 39.8542 3.65211 45.3115 5.17211 52.2475C8.21215 66.1199 13.1535 85.9072 20.7574 109.558C35.9657 156.862 61.8218 219.611 104.412 281.404C189.577 404.968 341.669 524.74 609.472 509.501L609.5 510L609.528 510.499C341.331 525.761 188.923 405.782 103.588 281.971C60.9284 220.077 35.0345 157.232 19.8054 109.864C12.1905 86.179 7.24119 66.3608 4.19529 52.4617C2.67233 45.512 1.62517 40.042 0.958576 36.3081C0.625276 34.4411 0.387112 33.0082 0.232177 32.0413C0.15471 31.5579 0.0980503 31.191 0.0607093 30.9446C0.0420388 30.8213 0.028198 30.7283 0.0190009 30.6659C0.0144024 30.6346 0.0109648 30.6111 0.00866482 30.5953C0.00751489 30.5873 0.00663716 30.5812 0.00606519 30.5773C0.00546917 30.5732 0.00515464 30.571 0.50011 30.5001ZM609.5 510L609.472 509.501C877.564 494.246 1154.28 559.62 1400.94 636.988C1524.27 675.673 1640.1 717.361 1743.57 753.473C1847.05 789.588 1938.17 820.121 2012.11 836.512L2012 837L2011.89 837.488C1937.89 821.083 1846.72 790.53 1743.24 754.417C1639.75 718.301 1523.95 676.621 1400.64 637.942C1154.02 560.584 877.437 495.255 609.528 510.499L609.5 510Z" fill="url(#paint1_linear_239_1411)"/>
</g>
<defs>
<linearGradient id="paint0_linear_239_1411" x1="1966.5" y1="657" x2="613.286" y2="-499.149" gradientUnits="userSpaceOnUse">
<stop stop-color="#007AFE" stop-opacity="0.05"/>
<stop offset="0.194775" stop-color="#007AFE"/>
<stop offset="0.985" stop-color="#007AFE"/>
</linearGradient>
<linearGradient id="paint1_linear_239_1411" x1="2128.27" y1="758.729" x2="684.539" y2="-624.199" gradientUnits="userSpaceOnUse">
<stop offset="0.015" stop-color="#007AFE" stop-opacity="0"/>
<stop offset="0.805225" stop-color="#007AFE"/>
<stop offset="1" stop-color="#007AFE" stop-opacity="0.05"/>
</linearGradient>
</defs>
</svg>
