<svg preserveAspectRatio="none" width="100%" height="100%" overflow="visible" style="display: block;" viewBox="0 0 1810.9 753.739" fill="none" xmlns="http://www.w3.org/2000/svg">
<g id="vector" opacity="0.32">
<path id="Vector 9" opacity="0.6" d="M0.047396 0.650902C-0.0635161 0.42849 0.0268681 0.158288 0.249275 0.0473869C0.471682 -0.063514 0.74189 0.026879 0.852802 0.249291L0.450099 0.450097L0.047396 0.650902ZM646.381 553.222L646.253 553.653V553.653L646.381 553.222ZM0.450099 0.450097C0.852802 0.249291 0.85354 0.250756 0.855084 0.253869C0.856674 0.257043 0.859025 0.261742 0.862206 0.26809C0.868567 0.280785 0.878154 0.29995 0.890968 0.325463C0.916597 0.376488 0.955135 0.453088 1.00659 0.554833C1.10949 0.758385 1.26405 1.06265 1.47031 1.46493C1.88284 2.26955 2.50217 3.46621 3.32865 5.03298C4.98163 8.16653 7.46323 12.7805 10.7763 18.6994C17.4024 30.5371 27.3543 47.5941 40.6546 68.4661C67.2555 110.211 107.249 167.213 160.816 228.239C267.953 350.294 429.368 488.422 646.509 552.79L646.381 553.222L646.253 553.653C428.893 489.22 267.343 350.963 160.14 228.832C106.536 167.765 66.516 110.725 39.8956 68.9499C26.5853 48.0621 16.6247 30.9902 9.99095 19.1389C6.67408 13.2133 4.18892 8.59274 2.53262 5.4529C1.70447 3.88296 1.08353 2.68319 0.669442 1.87557C0.4624 1.47176 0.307071 1.16592 0.203411 0.9609C0.151582 0.858422 0.112669 0.78109 0.0866686 0.729333C0.0736682 0.703454 0.0638958 0.683922 0.0573506 0.670861C0.054078 0.664269 0.0515893 0.659325 0.0499531 0.656029C0.0482712 0.652672 0.047396 0.650902 0.450099 0.450097ZM646.381 553.222L646.509 552.79C863.674 617.166 1082.84 608.762 1281.05 591.631C1380.14 583.066 1474.02 572.318 1559.74 567.402C1645.47 562.487 1723.11 563.399 1789.75 578.172L1789.65 578.611L1789.55 579.05C1723.04 564.306 1645.5 563.386 1559.79 568.301C1474.08 573.216 1380.26 583.96 1281.13 592.528C1082.9 609.66 863.589 618.079 646.253 553.653L646.381 553.222Z" fill="url(#paint0_linear_239_1499)"/>
<path id="Vector 10" opacity="0.21" d="M0.00463915 27.5131C-0.0305756 27.2671 0.140316 27.0391 0.386337 27.0039C0.632358 26.9687 0.860344 27.1396 0.895559 27.3856L0.450099 27.4494L0.00463915 27.5131ZM548.55 458.999L548.576 459.449V459.449L548.55 458.999ZM0.450099 27.4494C0.895559 27.3856 0.895777 27.3871 0.896248 27.3904C0.896741 27.3938 0.897465 27.3988 0.898456 27.4057C0.900438 27.4193 0.903443 27.4399 0.907492 27.4674C0.915589 27.5224 0.927862 27.6049 0.944478 27.7145C0.977709 27.9338 1.02831 28.2615 1.09762 28.6941C1.23625 29.5591 1.44971 30.8435 1.74871 32.5183C2.34672 35.8681 3.2869 40.7796 4.6549 47.0221C7.39094 59.5072 11.8381 77.3157 18.6816 98.6015C32.3691 141.175 55.6396 197.649 93.9706 253.263C170.619 364.471 307.502 472.265 548.525 458.55L548.55 458.999L548.576 459.449C307.198 473.184 170.031 365.203 93.2296 253.773C54.8356 198.068 31.5311 141.508 17.8248 98.8769C10.9714 77.5604 6.51707 59.724 3.77576 47.2147C2.4051 40.96 1.46266 36.0371 0.862718 32.6765C0.562748 30.9963 0.3484 29.7066 0.20896 28.8364C0.139239 28.4013 0.0882452 28.0711 0.0546384 27.8494C0.0378349 27.7385 0.0253782 27.6547 0.0171008 27.5985C0.0129621 27.5705 0.00986826 27.5492 0.00779828 27.535C0.00676337 27.5279 0.00597343 27.5224 0.00545865 27.5188C0.00492224 27.5151 0.00463915 27.5131 0.450099 27.4494ZM548.55 458.999L548.525 458.55C789.807 444.82 1038.86 503.657 1260.85 573.288C1371.84 608.105 1476.09 645.624 1569.21 678.125C1662.35 710.629 1744.35 738.108 1810.9 752.86L1810.8 753.299L1810.7 753.739C1744.1 738.974 1662.04 711.476 1568.92 678.975C1475.78 646.471 1371.55 608.958 1260.58 574.147C1038.62 504.525 789.693 445.728 548.576 459.449L548.55 458.999Z" fill="url(#paint1_linear_239_1499)"/>
</g>
<defs>
<linearGradient id="paint0_linear_239_1499" x1="1769.85" y1="591.3" x2="551.957" y2="-449.234" gradientUnits="userSpaceOnUse">
<stop stop-color="#007AFE" stop-opacity="0.05"/>
<stop offset="0.194775" stop-color="#007AFE"/>
<stop offset="0.985" stop-color="#007AFE"/>
</linearGradient>
<linearGradient id="paint1_linear_239_1499" x1="1915.45" y1="682.855" x2="616.085" y2="-561.78" gradientUnits="userSpaceOnUse">
<stop offset="0.015" stop-color="#007AFE" stop-opacity="0"/>
<stop offset="0.805225" stop-color="#007AFE"/>
<stop offset="1" stop-color="#007AFE" stop-opacity="0.05"/>
</linearGradient>
</defs>
</svg>
